<svg height="512pt" viewBox="-8 0 512 512.032" width="512pt" xmlns="http://www.w3.org/2000/svg"><path d="m128.015625 472.023438c-4.421875 0-8-3.574219-8-8 0-30.871094 25.128906-55.992188 56-55.992188 4.425781 0 8 3.578125 8 8 0 4.425781-3.574219 8-8 8-22.054687 0-40 17.9375-40 39.992188 0 4.425781-3.574219 8-8 8zm0 0"/><path d="m208.015625 424.039062-32-.007812c-4.421875 0-8-3.582031-8-8 0-4.421875 3.585937-8 8-8l32 .007812c4.425781 0 8 3.585938 8 8 0 4.425782-3.582031 8-8 8zm0 0"/><path d="m128.015625 496.03125c-4.421875 0-8-3.574219-8-8v-21.710938c0-4.425781 3.578125-8 8-8 4.425781 0 8 3.574219 8 8v21.710938c0 4.425781-3.574219 8-8 8zm0 0"/><path d="m368.015625 472.023438c-4.421875 0-8-3.574219-8-8 0-22.054688-17.945313-39.992188-40-39.992188-4.421875 0-8-3.574219-8-8 0-4.421875 3.578125-8 8-8 30.871094 0 56 25.121094 56 55.992188 0 4.425781-3.574219 8-8 8zm0 0"/><path d="m288.015625 424.039062c-4.414063 0-8-3.574218-8-8 0-4.414062 3.578125-8 8-8l32-.007812c4.417969 0 8 3.578125 8 8 0 4.417969-3.574219 8-8 8zm0 0"/><path d="m368.015625 496.03125c-4.421875 0-8-3.574219-8-8v-21.710938c0-4.425781 3.578125-8 8-8 4.425781 0 8 3.574219 8 8v21.710938c0 4.425781-3.574219 8-8 8zm0 0"/><path d="m352.015625 512.03125h-208c-4.421875 0-8-3.574219-8-8 0-4.421875 3.578125-8 8-8h208c4.425781 0 8 3.578125 8 8 0 4.425781-3.574219 8-8 8zm0 0"/><path d="m208.015625 424.039062c-4.421875 0-8-3.574218-8-8v-25.605468c0-4.425782 3.578125-8 8-8 4.425781 0 8 3.574218 8 8v25.605468c0 4.425782-3.574219 8-8 8zm0 0"/><path d="m288.015625 424.03125c-4.421875 0-8-3.574219-8-8v-25.597656c0-4.425782 3.578125-8 8-8 4.425781 0 8 3.574218 8 8v25.597656c0 4.425781-3.574219 8-8 8zm0 0"/><path d="m248.015625 408.03125c-52.9375 0-96-43.0625-96-96 0-4.421875 3.578125-8 8-8 4.425781 0 8 3.578125 8 8 0 44.113281 35.886719 80 80 80s80-35.886719 80-80c0-4.421875 3.578125-8 8-8 4.425781 0 8 3.578125 8 8 0 52.9375-43.0625 96-96 96zm0 0"/><path d="m160.015625 320.039062c-4.421875 0-8-3.574218-8-8v-72.007812c0-4.421875 3.578125-8 8-8 4.425781 0 8 3.578125 8 8v72.007812c0 4.425782-3.574219 8-8 8zm0 0"/><path d="m336.015625 320.046875c-4.421875 0-8-3.574219-8-8v-72.015625c0-4.421875 3.578125-8 8-8 4.425781 0 8 3.578125 8 8v72.015625c0 4.425781-3.574219 8-8 8zm0 0"/><path d="m336.015625 248.03125c-4.421875 0-8-3.574219-8-8 0-17.648438-14.351563-32-32-32-4.421875 0-8-3.574219-8-8 0-4.421875 3.578125-8 8-8 26.472656 0 48 21.527344 48 48 0 4.425781-3.574219 8-8 8zm0 0"/><path d="m296.015625 208.03125c-4.421875 0-8-3.574219-8-8v-32c0-4.421875 3.578125-8 8-8 4.425781 0 8 3.578125 8 8v32c0 4.425781-3.574219 8-8 8zm0 0"/><path d="m296.015625 176.03125h-64c-4.421875 0-8-3.574219-8-8 0-4.421875 3.578125-8 8-8h64c4.425781 0 8 3.578125 8 8 0 4.425781-3.574219 8-8 8zm0 0"/><path d="m160.015625 248.03125c-4.421875 0-8-3.574219-8-8 0-44.109375 35.886719-79.992188 80-79.992188 4.425781 0 8 3.578126 8 8 0 4.425782-3.574219 8-8 8-35.289063 0-64 28.703126-64 63.992188 0 4.425781-3.574219 8-8 8zm0 0"/><path d="m336.015625 288.03125c-2.046875 0-4.09375-.785156-5.65625-2.34375l-24-24c-3.128906-3.128906-3.128906-8.183594 0-11.3125s8.183594-3.128906 11.3125 0l24 24c3.128906 3.128906 3.128906 8.183594 0 11.3125-1.558594 1.558594-3.609375 2.34375-5.65625 2.34375zm0 0"/><path d="m248.015625 280.03125c-35.878906 0-66.503906-16.261719-67.792969-16.953125-3.886718-2.09375-5.34375-6.933594-3.253906-10.832031 2.085938-3.878906 6.917969-5.375 10.832031-3.261719.277344.152344 28.480469 15.046875 60.214844 15.046875 31.894531 0 59.929687-14.886719 60.207031-15.046875 3.882813-2.089844 8.746094-.632813 10.832032 3.253906 2.089843 3.890625.632812 8.746094-3.253907 10.832031-1.28125.699219-31.90625 16.960938-67.785156 16.960938zm0 0"/><path d="m160.015625 288.03125c-2.046875 0-4.09375-.785156-5.65625-2.34375-3.128906-3.128906-3.128906-8.183594 0-11.3125l24-24c3.128906-3.128906 8.183594-3.128906 11.3125 0s3.128906 8.183594 0 11.3125l-24 24c-1.558594 1.558594-3.609375 2.34375-5.65625 2.34375zm0 0"/><path d="m224.015625 440.03125c-2.046875 0-4.09375-.785156-5.65625-2.34375l-16-15.992188c-3.128906-3.128906-3.128906-8.183593 0-11.3125 3.128906-3.125 8.183594-3.125 11.3125 0l16 15.992188c3.128906 3.128906 3.128906 8.183594 0 11.3125-1.558594 1.558594-3.609375 2.34375-5.65625 2.34375zm0 0"/><path d="m224.015625 440.03125c-3.351563 0-6.472656-2.121094-7.582031-5.472656-1.402344-4.191406.863281-8.726563 5.054687-10.117188l24-8c4.214844-1.410156 8.71875.863282 10.121094 5.054688 1.398437 4.191406-.867187 8.726562-5.058594 10.121094l-24 8c-.847656.277343-1.703125.414062-2.535156.414062zm0 0"/><path d="m272.015625 440.03125c-2.046875 0-4.09375-.785156-5.65625-2.34375-3.128906-3.128906-3.128906-8.183594 0-11.3125l16-15.992188c3.128906-3.125 8.183594-3.125 11.3125 0 3.128906 3.128907 3.128906 8.183594 0 11.3125l-16 15.992188c-1.558594 1.558594-3.609375 2.34375-5.65625 2.34375zm0 0"/><path d="m272.015625 440.03125c-.832031 0-1.6875-.136719-2.527344-.414062l-24-8c-4.183593-1.394532-6.457031-5.921876-5.054687-10.121094 1.398437-4.183594 5.886718-6.464844 10.117187-5.054688l24 8c4.183594 1.390625 6.457031 5.917969 5.058594 10.117188-1.121094 3.351562-4.242187 5.472656-7.59375 5.472656zm0 0"/><path d="m352.015625 512.03125c-4.421875 0-8-3.574219-8-8 0-4.421875 3.578125-8 8-8 4.417969 0 8-3.582031 8-8 0-4.421875 3.578125-8 8-8 4.425781 0 8 3.578125 8 8 0 13.234375-10.769531 24-24 24zm0 0"/><path d="m144.015625 512.03125c-13.230469 0-24-10.765625-24-24 0-4.421875 3.578125-8 8-8 4.425781 0 8 3.578125 8 8 0 4.417969 3.585937 8 8 8 4.425781 0 8 3.578125 8 8 0 4.425781-3.574219 8-8 8zm0 0"/><path d="m248.257812 472.03125c-4.425781 0-8.042968-3.574219-8.042968-8 0-4.421875 3.539062-8 7.953125-8h.089843c4.414063 0 8 3.578125 8 8 0 4.425781-3.585937 8-8 8zm0 0"/><path d="m56.257812 288.007812c-4.425781 0-8.042968-3.574218-8.042968-8 0-4.421874 3.539062-8 7.953125-8h.089843c4.414063 0 8 3.578126 8 8 0 4.425782-3.585937 8-8 8zm0 0"/><path d="m56.015625 312.023438c-30.871094 0-56-25.128907-56-56 0-30.871094 25.121094-56 56-56.007813 14.960937 0 29.023437 5.832031 39.601563 16.398437 10.574218 10.578126 16.398437 24.640626 16.398437 39.601563 0 30.878906-25.128906 56.007813-56 56.007813zm.015625-96.007813c-22.0625.007813-40.015625 17.953125-40.015625 40.007813 0 22.054687 17.945313 40 40 40s40-17.945313 40-40.007813c0-22.054687-17.9375-40-39.984375-40zm0 0"/><path d="m56.015625 264.023438c-4.421875 0-8-3.574219-8-8v-24.015626c0-4.421874 3.578125-8 8-8 4.425781 0 8 3.578126 8 8v24.015626c0 4.425781-3.574219 8-8 8zm0 0"/><path d="m128.015625 264.03125h-23.992187c-4.421876 0-8-3.574219-8-8 0-4.421875 3.578124-8 8-8h23.992187c4.425781 0 8 3.578125 8 8 0 4.425781-3.574219 8-8 8zm0 0"/><path d="m440.265625 288.023438c-4.425781 0-8.042969-3.574219-8.042969-8 0-4.421876 3.539063-8 7.953125-8h.089844c4.414063 0 8 3.578124 8 8 0 4.425781-3.585937 8-8 8zm0 0"/><path d="m440.023438 312.03125c-30.871094 0-56-25.128906-56-56.015625 0-30.871094 25.121093-55.992187 55.992187-55.992187s56 25.128906 56 56c-.007813 30.871093-25.128906 56-55.992187 56.007812zm-.007813-96.007812c-22.054687 0-39.992187 17.9375-39.992187 39.992187 0 22.0625 17.945312 40.015625 40 40.015625 22.046874-.007812 39.984374-17.953125 39.992187-40.007812 0-22.054688-17.945313-40-40-40zm0 0"/><path d="m440.023438 264.03125c-4.414063 0-8-3.574219-8-8l-.007813-24.007812c0-4.414063 3.578125-8 8-8 4.417969 0 8 3.578124 8 8l.007813 24.007812c0 4.417969-3.574219 8-8 8zm0 0"/><path d="m392.015625 264.039062-24-.007812c-4.421875 0-8-3.582031-8-8 0-4.421875 3.585937-8 8-8l24 .007812c4.425781 0 8 3.585938 8 8 0 4.425782-3.582031 8-8 8zm0 0"/><path d="m389.695312 146.601562c-4.421874 0-8.039062-3.578124-8.039062-8 0-4.425781 3.535156-8 7.953125-8h.085937c4.417969 0 8 3.574219 8 8 0 4.421876-3.582031 8-8 8zm0 0"/><path d="m389.457031 170.609375c-.007812 0-.007812 0 0 0-30.882812 0-56-25.128906-56-56.015625 0-30.875 25.117188-56 55.992188-56 30.871093 0 55.992187 25.125 55.992187 56 0 30.871094-25.121094 56-55.984375 56.015625zm-.007812-96.015625c-22.058594 0-39.992188 17.941406-39.992188 40 0 22.0625 17.933594 40.015625 39.992188 40.015625 22.046875-.015625 39.992187-17.960937 39.992187-40.015625 0-22.058594-17.9375-40-39.992187-40zm0 0"/><path d="m389.457031 122.609375c-4.417969 0-8-3.578125-8-7.992187l-.015625-24.007813c0-4.425781 3.574219-8.007813 7.992188-8.007813h.007812c4.414063 0 8 3.574219 8 7.992188l.015625 24.007812c0 4.421876-3.585937 8.007813-8 8.007813zm0 0"/><path d="m338.527344 173.519531c-2.046875 0-4.09375-.785156-5.65625-2.34375-3.128906-3.128906-3.128906-8.191406 0-11.3125l16.976562-16.960937c3.128906-3.125 8.183594-3.125 11.3125 0 3.128906 3.128906 3.128906 8.195312 0 11.3125l-16.976562 16.960937c-1.558594 1.558594-3.609375 2.34375-5.65625 2.34375zm0 0"/><path d="m248.273438 88c-4.425782 0-8.042969-3.574219-8.042969-8s3.539062-8 7.953125-8h.089844c4.414062 0 8 3.574219 8 8s-3.585938 8-8 8zm0 0"/><path d="m248.023438 112.015625c-.007813 0-.007813 0 0 0-30.878907 0-56.007813-25.128906-56.007813-56.015625 0-30.871094 25.128906-56 56-56s56 25.128906 56 56c0 30.863281-25.121094 56-55.992187 56.015625zm-.007813-96.015625c-22.054687 0-40 17.945312-40 40 0 22.0625 17.945313 40.015625 40 40.015625 22.054687-.015625 40-17.960937 40-40.015625s-17.945313-40-40-40zm0 0"/><path d="m248.015625 64.015625c-4.421875 0-8-3.574219-8-8v-24.015625c0-4.425781 3.578125-8 8-8 4.425781 0 8 3.574219 8 8v24.015625c0 4.425781-3.574219 8-8 8zm0 0"/><path d="m248.03125 136.015625c-4.421875 0-8-3.574219-8-8v-24c0-4.421875 3.578125-8 8-8 4.425781 0 8 3.578125 8 8v24c0 4.425781-3.574219 8-8 8zm0 0"/><path d="m106.863281 146.566406c-4.421875 0-8.039062-3.574218-8.039062-8 0-4.421875 3.535156-8 7.953125-8h.085937c4.417969 0 8 3.578125 8 8 0 4.425782-3.582031 8-8 8zm0 0"/><path d="m106.609375 170.59375c-14.96875 0-29.035156-5.832031-39.609375-16.417969-10.566406-10.574219-16.398438-24.648437-16.390625-39.601562 0-30.871094 25.117187-56 55.992187-56 30.871094 0 55.992188 25.128906 55.992188 56 .007812 30.867187-25.105469 55.992187-55.984375 56.019531zm-.007813-96.019531c-22.058593 0-39.992187 17.945312-39.992187 40 0 10.691406 4.160156 20.738281 11.710937 28.296875 7.542969 7.554687 17.589844 11.722656 28.273438 11.722656 22.0625-.019531 40.007812-17.96875 40-40.019531 0-22.054688-17.9375-40-39.992188-40zm0 0"/><path d="m106.601562 122.585938c-4.425781 0-8-3.578126-8-8v-24.011719c0-4.421875 3.574219-8 8-8 4.421876 0 8 3.578125 8 8v24.011719c0 4.421874-3.578124 8-8 8zm0 0"/><path d="m157.519531 173.503906c-2.046875 0-4.09375-.785156-5.65625-2.34375l-16.96875-16.96875c-3.125-3.128906-3.125-8.183594 0-11.3125 3.128907-3.125 8.183594-3.125 11.3125 0l16.96875 16.96875c3.128907 3.128906 3.128907 8.183594 0 11.3125-1.566406 1.558594-3.617187 2.34375-5.65625 2.34375zm0 0"/></svg>