<?xml version="1.0" encoding="iso-8859-1"?>
<!-- Generator: Adobe Illustrator 18.0.0, SVG Export Plug-In . SVG Version: 6.00 Build 0)  -->
<!DOCTYPE svg PUBLIC "-//W3C//DTD SVG 1.1//EN" "http://www.w3.org/Graphics/SVG/1.1/DTD/svg11.dtd">
<svg version="1.1" id="Capa_1" xmlns="http://www.w3.org/2000/svg" xmlns:xlink="http://www.w3.org/1999/xlink" x="0px" y="0px"
	 viewBox="0 0 450.222 450.222" style="enable-background:new 0 0 450.222 450.222;" xml:space="preserve">
<g>
	<path d="M333.515,225.194c-0.951-3.128-3.819-5.28-7.089-5.318c-3.305-0.042-6.188,2.046-7.21,5.152l-66.679,202.378
		c-1.221,3.705,0.602,7.726,4.191,9.25c21.298,9.044,44.162,13.565,67.026,13.565s45.729-4.521,67.026-13.565
		c3.528-1.498,5.359-5.417,4.244-9.084L333.515,225.194z M268.991,425.4l57.06-173.183l52.619,173.126
		C343.471,438.506,304.204,438.525,268.991,425.4z"/>
	<path d="M259.511,269.095c-10.045,8.161-16.255,19.751-17.486,32.636s2.671,25.441,10.988,35.358c1.483,1.769,3.609,2.68,5.75,2.68
		c1.7,0,3.411-0.575,4.815-1.753c3.174-2.662,3.589-7.393,0.927-10.566c-5.714-6.813-8.395-15.44-7.549-24.292
		s5.112-16.814,12.014-22.421c10.104-8.208,16.32-19.869,17.505-32.833c1.181-12.911-2.784-25.453-11.161-35.339
		c41.857-8.592,73.827-52.633,73.827-105.515C349.141,48.022,309.318,0,260.37,0c-32.72,0-62.887,21.961-78.236,56.42
		c-2.031-0.168-4.08-0.261-6.146-0.261c-48.95,0-88.774,48.021-88.774,107.048c0,57.596,37.92,104.706,85.235,106.955l6.97,8.174
		c5.804,6.805,8.552,15.458,7.737,24.364s-5.085,16.917-12.026,22.556c-10.045,8.162-16.255,19.751-17.486,32.636
		s2.671,25.441,10.988,35.358l25.613,30.54c1.483,1.769,3.609,2.681,5.75,2.681c1.7,0,3.411-0.575,4.815-1.753
		c3.174-2.662,3.589-7.393,0.927-10.566l-25.613-30.54c-5.714-6.813-8.395-15.44-7.549-24.292s5.112-16.814,12.014-22.421
		c10.104-8.208,16.32-19.869,17.505-32.832c1.181-12.909-2.783-25.45-11.159-35.336c27.373-5.62,50.515-26.398,63.255-54.899
		c0.877,0.073,1.757,0.124,2.637,0.166l6.974,8.178c5.803,6.805,8.551,15.458,7.736,24.364S266.452,263.456,259.511,269.095z
		 M260.37,15c40.677,0,73.771,41.293,73.771,92.05c0,50.751-33.094,92.04-73.771,92.04c-0.247,0-0.493-0.012-0.74-0.015
		c3.318-11.219,5.132-23.292,5.132-35.868c0-50.154-28.754-92.355-67.425-103.911C210.631,32.129,234.641,15,260.37,15z
		 M175.987,255.255c-40.68,0-73.774-41.292-73.774-92.048c0-50.756,33.095-92.048,73.774-92.048s73.774,41.292,73.774,92.048
		C249.762,213.962,216.667,255.255,175.987,255.255z"/>
	<path d="M321.204,336.098c-1.722-4.067-6.711-5.837-10.588-3.667c-4.306,2.41-5.042,8.346-1.643,11.848
		c2.443,2.368,6.196,2.875,9.141,1.134C321.28,343.54,322.608,339.492,321.204,336.098
		C321.014,335.648,321.394,336.558,321.204,336.098z"/>
	<path d="M333.354,377.838c1.165,2.769,3.903,4.628,6.92,4.63c3.063,0.001,5.872-1.927,6.989-4.772
		c1.132-2.883,0.317-6.273-2.003-8.331c-2.406-2.134-5.998-2.482-8.771-0.86C333.315,370.363,331.914,374.433,333.354,377.838
		C333.544,378.288,333.164,377.388,333.354,377.838z"/>
	<path d="M309.204,410.098c-1.245-2.94-4.272-4.851-7.476-4.606c-3.135,0.24-5.827,2.455-6.672,5.481
		c-1.824,6.526,5.734,12.031,11.388,8.235C309.387,417.233,310.559,413.374,309.204,410.098
		C309.014,409.648,309.394,410.558,309.204,410.098z"/>
	<path d="M51.583,33.667c-2.93-2.929-7.678-2.929-10.607,0c-2.929,2.929-2.929,7.677,0,10.606l9.5,9.5
		c1.465,1.465,3.385,2.197,5.304,2.197s3.839-0.732,5.304-2.197c2.929-2.929,2.929-7.677,0-10.606L51.583,33.667z"/>
	<path d="M381.518,75.47c1.919,0,3.839-0.732,5.304-2.197l9.5-9.5c2.929-2.929,2.929-7.677,0-10.606
		c-2.93-2.929-7.678-2.929-10.607,0l-9.5,9.5c-2.929,2.929-2.929,7.677,0,10.606C377.68,74.738,379.599,75.47,381.518,75.47z"/>
	<path d="M283.664,154.866c1.199,0.71,2.515,1.047,3.814,1.047c2.563,0,5.06-1.314,6.461-3.68l6.845-11.561
		c2.109-3.564,0.932-8.165-2.633-10.275c-3.563-2.109-8.162-0.933-10.275,2.632l-6.845,11.561
		C278.921,148.156,280.099,152.756,283.664,154.866z"/>
	<path d="M126.93,342.6l-9.5,9.5c-2.929,2.929-2.929,7.678,0,10.606c1.465,1.464,3.385,2.197,5.304,2.197s3.839-0.732,5.304-2.197
		l9.5-9.5c2.929-2.929,2.929-7.678,0-10.606C134.607,339.671,129.859,339.671,126.93,342.6z"/>
	<path d="M50.501,229.002c-4.143,0-7.5,3.358-7.5,7.5v13.435c0,4.142,3.357,7.5,7.5,7.5s7.5-3.358,7.5-7.5v-13.435
		C58.001,232.36,54.643,229.002,50.501,229.002z"/>
	<path d="M403.943,197.188h-13.436c-4.143,0-7.5,3.358-7.5,7.5s3.357,7.5,7.5,7.5h13.436c4.143,0,7.5-3.358,7.5-7.5
		S408.086,197.188,403.943,197.188z"/>
	<path d="M167.579,92.728h-13.435c-4.143,0-7.5,3.358-7.5,7.5s3.357,7.5,7.5,7.5h13.435c4.143,0,7.5-3.358,7.5-7.5
		S171.722,92.728,167.579,92.728z"/>
</g>
<g>
</g>
<g>
</g>
<g>
</g>
<g>
</g>
<g>
</g>
<g>
</g>
<g>
</g>
<g>
</g>
<g>
</g>
<g>
</g>
<g>
</g>
<g>
</g>
<g>
</g>
<g>
</g>
<g>
</g>
</svg>
