<svg height="480pt" viewBox="0 0 480 480.00248" width="480pt" xmlns="http://www.w3.org/2000/svg"><path d="m312 432c-4.417969 0-8 3.582031-8 8 0 13.253906-10.742188 24-24 24-4.417969 0-8 3.582031-8 8s3.582031 8 8 8c22.082031-.027344 39.976562-17.917969 40-40 0-4.417969-3.582031-8-8-8zm0 0"/><path d="m472 464c-13.253906 0-24-10.746094-24-24 0-4.417969-3.582031-8-8-8s-8 3.582031-8 8c0 13.253906-10.742188 24-24 24-13.253906 0-24-10.746094-24-24 0-4.417969-3.582031-8-8-8s-8 3.582031-8 8c0 13.253906-10.742188 24-24 24-4.417969 0-8 3.582031-8 8s3.582031 8 8 8c12.640625-.035156 24.515625-6.0625 32-16.246094 7.464844 10.210938 19.351562 16.25 32 16.25s24.539062-6.039062 32-16.25c7.488281 10.183594 19.363281 16.210938 32 16.246094 4.417969 0 8-3.582031 8-8s-3.582031-8-8-8zm0 0"/><path d="m248 432c-4.417969 0-8 3.582031-8 8 0 13.253906-10.742188 24-24 24-13.253906 0-24-10.746094-24-24 0-4.417969-3.582031-8-8-8s-8 3.582031-8 8c0 13.253906-10.742188 24-24 24-13.253906 0-24-10.746094-24-24 0-4.417969-3.582031-8-8-8s-8 3.582031-8 8c0 13.253906-10.742188 24-24 24-13.253906 0-24-10.746094-24-24 0-4.417969-3.582031-8-8-8s-8 3.582031-8 8c-.046875 17.253906 11.003906 32.582031 27.386719 37.988281 16.386719 5.40625 34.386719-.339843 44.613281-14.234375 7.464844 10.210938 19.351562 16.25 32 16.25s24.539062-6.039062 32-16.25c10.226562 13.894532 28.230469 19.640625 44.613281 14.234375 16.386719-5.40625 27.4375-20.734375 27.386719-37.988281 0-4.417969-3.582031-8-8-8zm0 0"/><path d="m32 372c-8.835938 0-16-7.164062-16-16 0-4.417969-3.582031-8-8-8s-8 3.582031-8 8c0 17.671875 14.328125 32 32 32 4.417969 0 8-3.582031 8-8s-3.582031-8-8-8zm0 0"/><path d="m344 376.953125c6 7.015625 14.769531 11.054687 24 11.054687 9.234375 0 18.003906-4.039062 24-11.054687 6 7.015625 14.769531 11.054687 24 11.054687 9.234375 0 18.003906-4.039062 24-11.054687 6.019531 6.988281 14.777344 11.019531 24 11.046875 4.417969 0 8-3.582031 8-8s-3.582031-8-8-8c-8.835938 0-16-7.164062-16-16 0-4.417969-3.582031-8-8-8s-8 3.582031-8 8c0 8.835938-7.164062 16-16 16s-16-7.164062-16-16v-124c0-13.253906 10.746094-24 24-24 13.257812 0 24 10.746094 24 24 0 4.417969 3.582031 8 8 8s8-3.582031 8-8c0-22.089844-17.90625-40-40-40-22.089844 0-40 17.910156-40 40v24h-80v-24c0-13.253906 10.746094-24 24-24 13.257812 0 24 10.746094 24 24 0 4.417969 3.582031 8 8 8s8-3.582031 8-8c0-22.089844-17.90625-40-40-40-22.089844 0-40 17.910156-40 40v124c0 8.835938-7.164062 16-16 16-4.417969 0-8 3.582031-8 8s3.582031 8 8 8c9.226562-.027344 17.984375-4.0625 24-11.054688 6 7.015626 14.769531 11.054688 24 11.054688 9.234375 0 18.003906-4.039062 24-11.054688zm-40-72.953125h80v16h-80zm80-32v16h-80v-16zm-64 100c-8.835938 0-16-7.164062-16-16v-20h80v20c0 8.835938-7.164062 16-16 16s-16-7.164062-16-16c0-4.417969-3.582031-8-8-8s-8 3.582031-8 8c0 8.835938-7.164062 16-16 16zm0 0"/><path d="m89.234375 309.902344 4.367187 2.53125-27.527343 51.285156c-1.34375-2.351562-2.054688-5.011719-2.074219-7.71875 0-4.417969-3.582031-8-8-8s-8 3.582031-8 8c-.058594 13.34375 8.203125 25.3125 20.703125 29.984375 12.5 4.675781 26.585937 1.066406 35.296875-9.039063 6 7.015626 14.769531 11.054688 24 11.054688 9.234375 0 18.003906-4.039062 24-11.054688 6 7.015626 14.769531 11.054688 24 11.054688 9.234375 0 18.003906-4.039062 24-11.054688 6.019531 6.992188 14.777344 11.027344 24 11.054688 4.417969 0 8-3.582031 8-8s-3.582031-8-8-8c-8.835938 0-16-7.164062-16-16 0-4.417969-3.582031-8-8-8s-8 3.582031-8 8c0 8.835938-7.164062 16-16 16s-16-7.164062-16-16c0-4.417969-3.582031-8-8-8s-8 3.582031-8 8c0 8.835938-7.164062 16-16 16s-16-7.164062-16-16c0-4.417969-3.582031-8-8-8s-8 3.582031-8 8c0 8.835938-7.164062 16-16 16-.070312 0-.132812 0-.207031 0l31.578125-58.824219c2.042968-3.808593.691406-8.550781-3.050782-10.710937l-11.085937-6.402344c-4.046875-2.335938-7-6.183594-8.207031-10.695312-1.207032-4.515626-.566406-9.324219 1.773437-13.367188l44.800781-77.601562c1.324219-2.296876 4.261719-3.082032 6.558594-1.757813s3.085938 4.261719 1.761719 6.558594l-41.601563 72.058593c-3.976562 6.886719-1.617187 15.695313 5.273438 19.671876l44.34375 25.597656c3.824219 2.210937 8.71875.898437 10.929688-2.925782.152343-.359374.277343-.726562.375-1.105468 2.363281-2.933594 2.324218-7.128906-.097657-10.015625-9.621093-11.253907-9.738281-27.808594-.269531-39.191407 9.46875-11.386718 25.761719-14.296874 38.585938-6.886718 12.820312 7.410156 18.4375 22.976562 13.300781 36.867187-5.136719 13.886719-19.53125 22.054688-34.089844 19.339844-3.714844-.664063-7.375 1.40625-8.726563 4.925781-.277343.269532-.53125.5625-.761718.871094-2.207032 3.828125-.898438 8.71875 2.929687 10.929688l16.953125 9.785156 52.933594 27.320312c3.929688 2.027344 8.757812.488282 10.785156-3.441406s.488282-8.757812-3.441406-10.785156l-49.949219-25.757813c23.480469-8.058593 36.460938-33.167969 29.453125-56.984375-7.003906-23.8125-31.511718-37.898437-55.613281-31.957031-24.105469 5.9375-39.261719 29.796875-34.402344 54.140625l-23.871093-13.777344 40.800781-70.671875c5.285156-9.894531 1.773437-22.195312-7.941407-27.808593-9.714843-5.613282-22.125-2.511719-28.058593 7.007812l-44.800781 77.601562c-9.28125 16.0625-3.789063 36.609376 12.273437 45.894532zm0 0"/><path d="m240 128c22.09375 0 40-17.910156 40-40s-17.90625-40-40-40c-22.089844 0-40 17.910156-40 40 .027344 22.082031 17.921875 39.972656 40 40zm0-64c13.257812 0 24 10.746094 24 24s-10.742188 24-24 24c-13.253906 0-24-10.746094-24-24s10.746094-24 24-24zm0 0"/><path d="m240 32c4.417969 0 8-3.582031 8-8v-16c0-4.417969-3.582031-8-8-8s-8 3.582031-8 8v16c0 4.417969 3.582031 8 8 8zm0 0"/><path d="m232 152v16c0 4.417969 3.582031 8 8 8s8-3.582031 8-8v-16c0-4.417969-3.582031-8-8-8s-8 3.582031-8 8zm0 0"/><path d="m296 88c0 4.417969 3.582031 8 8 8h16c4.417969 0 8-3.582031 8-8s-3.582031-8-8-8h-16c-4.417969 0-8 3.582031-8 8zm0 0"/><path d="m160 96h16c4.417969 0 8-3.582031 8-8s-3.582031-8-8-8h-16c-4.417969 0-8 3.582031-8 8s3.582031 8 8 8zm0 0"/><path d="m285.257812 50.753906c2.121094-.003906 4.15625-.84375 5.65625-2.347656l11.3125-11.308594c2.078126-2.011718 2.914063-4.984375 2.179688-7.78125-.730469-2.796875-2.914062-4.980468-5.714844-5.714844-2.796875-.730468-5.769531.101563-7.777344 2.183594l-11.3125 11.3125c-2.289062 2.285156-2.972656 5.726563-1.734374 8.714844 1.238281 2.988281 4.15625 4.9375 7.390624 4.941406zm0 0"/><path d="m189.089844 127.609375-11.3125 11.3125c-2.078125 2.007813-2.914063 4.980469-2.183594 7.777344.734375 2.796875 2.917969 4.980469 5.714844 5.714843 2.796875.730469 5.773437-.101562 7.78125-2.183593l11.3125-11.308594c3.03125-3.140625 2.988281-8.128906-.097656-11.214844-3.085938-3.085937-8.078126-3.128906-11.214844-.097656zm0 0"/><path d="m290.914062 127.609375c-2.007812-2.082031-4.984374-2.914063-7.78125-2.183594-2.796874.734375-4.980468 2.917969-5.714843 5.714844-.730469 2.796875.105469 5.769531 2.183593 7.78125l11.3125 11.308594c3.136719 3.035156 8.128907 2.988281 11.214844-.097657 3.085938-3.085937 3.128906-8.074218.097656-11.210937zm0 0"/><path d="m189.089844 48.40625c3.136718 3.035156 8.128906 2.988281 11.214844-.09375 3.085937-3.085938 3.128906-8.078125.097656-11.214844l-11.3125-11.3125c-3.140625-3.03125-8.128906-2.988281-11.214844.097656-3.085938 3.085938-3.128906 8.074219-.097656 11.214844zm0 0"/><path d="m51.3125 112c9.367188.015625 18.351562-3.699219 24.96875-10.328125 7.558594-7.511719 19.761719-7.511719 27.320312 0 2.007813 2.078125 4.984376 2.914063 7.78125 2.183594 2.796876-.734375 4.980469-2.917969 5.710938-5.714844.734375-2.796875-.101562-5.773437-2.179688-7.78125-13.800781-13.769531-36.144531-13.769531-49.945312 0-7.546875 7.53125-19.765625 7.53125-27.3125 0-3.136719-3.03125-8.128906-2.988281-11.214844.097656-3.085937 3.085938-3.128906 8.074219-.097656 11.214844 6.617188 6.628906 15.605469 10.34375 24.96875 10.328125zm0 0"/><path d="m390.058594 112c9.367187.019531 18.355468-3.695312 24.976562-10.320312 7.546875-7.527344 19.761719-7.527344 27.308594 0 2.011719 2.078124 4.984375 2.914062 7.78125 2.183593 2.796875-.734375 4.980469-2.917969 5.714844-5.714843.730468-2.796876-.101563-5.773438-2.183594-7.78125-13.796875-13.765626-36.136719-13.765626-49.933594 0-7.558594 7.511718-19.765625 7.511718-27.320312 0-3.140625-3.03125-8.128906-2.988282-11.214844.097656-3.085938 3.085937-3.128906 8.074218-.097656 11.214844 6.617187 6.625 15.601562 10.339843 24.96875 10.320312zm0 0"/></svg>